<mxfile host="app.diagrams.net" modified="2024-06-18T19:51:16.719Z" agent="Mozilla/5.0 (Windows NT 10.0; Win64; x64; rv:127.0) Gecko/20100101 Firefox/127.0" version="24.5.4" etag="iihVjAwra4eAq4ExgUlN" type="github">
  <diagram name="PÃ¡gina-1" id="4as73ThrnqFjuTlexeTm">
    <mxGraphModel>
      <root>
        <mxCell id="0" />
        <mxCell id="1" parent="0" />
      </root>
    </mxGraphModel>
  </diagram>
</mxfile>
